<?xml version="1.0" encoding="utf-8"?>
<svg version="1.1" id="Layer_1"
xmlns="http://www.w3.org/2000/svg"
xmlns:xlink="http://www.w3.org/1999/xlink"
width="881px" height="162px"
xml:space="preserve">
<g id="PathID_49" transform="matrix(0.668957, 0, 0, 0.668957, 81.55, 77.7)" opacity="1">
<path style="fill:#FFF400;fill-opacity:1" d="M-22.5 -94.5L-15.75 -97.25Q-12.5 -99.1 -9 -99.75Q-5.25 -101.1 -1.5 -101.5Q1.75 -102.75 6.5 -103Q11.75 -103.5 16.5 -103.5Q21.5 -103.5 25.25 -103.25L35.25 -102.25Q40.5 -101.5 44.5 -100.5L54 -97.75L61.5 -95L69.5 -91.5Q74.25 -89.1 77.5 -86.75L85.5 -81.5L93 -75.75L99.5 -69L106.75 -60.5L110.75 -53.75L114 -44.5L113.75 -37Q112.6 -33 110.35 -28.65Q107.6 -24.7 104.9 -21.75Q101.7 -18.2 98.15 -14.65Q98 -14.35 88.5 -6.5L83.5 -2.5L75 3.5L69 7.75L63 11L57 14.5L50 18.25L42.5 22.5L35.85 26.35Q32.2 27.85 27.9 29.9Q24.85 31.6 20.85 33.2Q16.4 35.4 11.5 37.3Q7.5 39.15 4.2 40.35Q0 42.4 -4.1 44Q-9.7 46.5 -15.65 48.65Q-20.05 50.5 -24 51.65L-35 55.5L-30 62.5L-24.5 68.5L-16 75L-8 80L0 83.5L8 86L14 87.5L22 89L30.5 89.5L40 89.5L47.5 89L54.5 88L60.5 86.5L66.5 85L71.5 83L79 80L87 76.5L97 70.5L101.5 68L94.5 74.5L89 79.5L83.5 83.5L77.75 87.5L70.25 92Q66.25 94.25 62 95.5L55.5 98L44 101L33.5 102.5L24.75 103.5L15 102.75Q12 103.1 7.75 102L-0.25 101L-9 99L-16.5 96.5Q-21 94.75 -25 92.5L-31.5 89Q-32 89 -37.5 85.5L-43.5 81.5L-49.5 77L-54 72.5L-60 64L-62 64Q-64.6 65.1 -68.15 65.95Q-71.6 66.95 -74.75 67.25Q-78.95 68.35 -83.5 68.35Q-87.25 68.75 -91.35 68.35Q-94.9 68.5 -98.5 67.5Q-101.5 67.35 -105 66Q-107.9 64 -110.5 62Q-112.5 59.5 -113.5 57.5Q-114.45 54.5 -114.35 50.85Q-114 47.95 -113 45L-111.25 39.75Q-110.1 37.25 -108.75 35L-106.25 31Q-104.75 28.85 -103 26.75L-99.5 22.5Q-97 20.25 -94 17.75L-86.5 13.5L-87.5 15.5L-91.5 22L-96 29.5L-99 35Q-100.5 39 -101.25 43.5Q-99.75 47 -98 48.5L-92 50.5L-84.5 51Q-79.85 50.1 -76 49L-70.25 47.5L-62 45L-53.75 42L-47 39.5Q-44.35 38.1 -40.75 36.75Q-37.1 35.6 -34 34L-28 31.25L-23.25 29.25L-17.5 26.5L-9.5 23.25L-2 19.5L4 17L11 13.5L18.35 9.35L24.8 5.8L31.5 2.5L36.6 -1L42 -4.35L48 -9L54.5 -14L60 -18.8L65.5 -24L70.5 -29L75 -36L77.25 -42L77.5 -49L74.5 -56L68 -62L60.5 -67L53 -70.5L44 -73L35.5 -74.5L28.5 -74.75L20.75 -75L12 -74L5.25 -72.5L-1.75 -70.75L-8 -68L-13 -65.5L-19 -62.5L-24.25 -59.25L-28.5 -55.25L-33.25 -51.25L-38.5 -46.5L-42.5 -40.5L-46.5 -34.5L-49.75 -26.5L-52.75 -18Q-53.5 -13.5 -53.75 -8.25L-54.25 -0.5L-53.75 7.75L-52.5 16.75L-50.5 24L-48.5 31.65L-74.85 40Q-75.9 37.75 -76.5 35.5Q-77.8 32.75 -78.6 29.65Q-79.65 26.95 -79.7 24.65Q-80.6 21.5 -81.25 18L-82.5 10Q-83 6.75 -83.25 3Q-83.25 0 -83.5 -2L-83.25 -7.5Q-83 -10 -82.5 -12.5L-81.5 -19L-80.5 -23.5L-78.5 -28.5L-77 -33.5L-74.5 -38L-72.5 -44L-69 -50L-66 -56L-62.5 -61L-58 -66.5L-50.75 -74.25L-42 -81.5L-32 -88.5L-22.5 -94.5" />
</g>
<g id="PathID_50" transform="matrix(0.668957, 0, 0, 0.668957, 81.55, 77.7)" opacity="1">
</g>
<g id="PathID_51" transform="matrix(0.668957, 0, 0, 0.668957, 130.75, 83.75)" opacity="1">
<path style="fill:#8CE458;fill-opacity:1" d="M57 -51.75Q61.75 -51.35 66.5 -49.5Q69.75 -46.85 71.5 -44.25Q72.5 -40.6 72.5 -37Q71.5 -32.25 70 -27.5Q68.5 -24 65.75 -20.25Q63 -16 59.25 -12Q55.5 -8.5 51.75 -4.75Q47.75 -1.25 44.25 2L34.5 9.5L26.25 15.75L18 21.25Q14.5 23.25 10.25 26L2.25 30.5L-7.5 35.25L-15.25 38.75L-23 42.25L-31.5 45.5L-39.5 48Q-41.85 48.85 -45.75 49.5L-54.75 51.5Q-61.5 52.5 -66.25 53Q-70.75 53.6 -74 52.5L-63.5 49.5L-53 46L-45 43.5L-36 39.5L-27.5 36L-21 33L-14.5 29.5L-7 25.5L0.75 21L7.75 16L14 11.5L21 6L28.5 0L34 -5.5L38.5 -10Q38 -10 43 -15Q43.5 -15 47.5 -21.5L51.5 -28.5L53.5 -35Q54.25 -38.75 53.5 -42.5L51.5 -46.5L48.5 -50.5Q52.5 -51.6 57 -51.75" />
</g>
<g id="PathID_52" transform="matrix(0.668957, 0, 0, 0.668957, 130.75, 83.75)" opacity="1">
</g>
<g id="PathID_53" transform="matrix(0.668957, 0, 0, 0.668957, 135.2, 106.35)" opacity="1">
<path style="fill:#8CE458;fill-opacity:1" d="M58.35 -31.4Q59.4 -30.6 60.1 -29.15Q60.45 -26.15 59.75 -23L57 -16.25Q55.05 -13.25 52 -9.25L45.25 -2.25Q42 1 37.5 4.25L28.75 10.25L20 15.5L12.25 19.75L4.25 23.5L-5 26.75L-14 29.25Q-19 30.85 -24.5 31.75L-35 33.25L-45.5 33.75L-55 33.25Q-58.25 33.5 -60.75 32.25L-51.75 30.75Q-46.75 29.75 -42.5 28.75L-30.75 26.75L-23 24.5Q-17.25 22.85 -11 20.25L-2 16.25Q3.6 14.1 8.9 11L18.7 5.25L26.2 0.4L32.45 -4.35Q35.5 -6.5 38 -9.25L43.65 -15.3L46.45 -19.25L49.25 -23.75Q50.7 -26.4 51.25 -28.75L52.5 -35Q55.85 -33.3 58.35 -31.4" />
</g>
<g id="PathID_54" transform="matrix(0.668957, 0, 0, 0.668957, 135.2, 106.35)" opacity="1">
</g>
<g id="PathID_55" transform="matrix(2.93098, 0, 0, 2.93098, 191.15, 119.35)" opacity="1">
<path style="fill:#FFFFFF;fill-opacity:1" d="M3.3 -26.25Q3.3 -28.45 4.55 -29.7Q5.85 -31 8.05 -31L24.95 -31Q25.3 -30.45 25.6 -29.5Q25.9 -28.6 25.9 -27.55Q25.9 -25.65 25.05 -24.8Q24.2 -24 22.8 -24L12 -24L12 -19.25L23.55 -19.25Q23.9 -18.65 24.15 -17.75Q24.45 -16.85 24.45 -15.85Q24.45 -13.9 23.6 -13.05Q22.8 -12.25 21.45 -12.25L12 -12.25L12 -6.9L25.15 -6.9Q25.5 -6.3 25.8 -5.4Q26.1 -4.5 26.1 -3.45Q26.1 -1.5 25.25 -0.65Q24.4 0.2 23 0.2L8.05 0.2Q5.85 0.2 4.55 -1.1Q3.3 -2.4 3.3 -4.6L3.3 -26.25" />
</g>
<g id="PathID_56" transform="matrix(2.93098, 0, 0, 2.93098, 191.15, 119.35)" opacity="1">
</g>
<g id="PathID_57" transform="matrix(2.93098, 0, 0, 2.93098, 273.3, 119.35)" opacity="1">
<path style="fill:#FFFFFF;fill-opacity:1" d="M13.3 -5.5Q14.15 -5.5 15.2 -5.65Q16.25 -5.85 16.75 -6.15L16.75 -10.25L13.1 -9.95Q11.65 -9.85 10.7 -9.35Q9.8 -8.85 9.8 -7.8Q9.8 -6.8 10.6 -6.15Q11.4 -5.5 13.3 -5.5M12.9 -25.65Q15.65 -25.65 17.9 -25.05Q20.2 -24.5 21.8 -23.35Q23.4 -22.2 24.25 -20.4Q25.15 -18.65 25.15 -16.25L25.15 -4.8Q25.15 -3.45 24.4 -2.6Q23.7 -1.75 22.65 -1.15Q19.35 0.85 13.3 0.85Q10.55 0.85 8.35 0.3Q6.2 -0.2 4.65 -1.2Q3.1 -2.25 2.25 -3.8Q1.4 -5.4 1.4 -7.5Q1.4 -11.05 3.5 -12.9Q5.6 -14.8 10 -15.3L16.7 -16L16.7 -16.35Q16.7 -17.85 15.4 -18.45Q14.1 -19.1 11.65 -19.1Q9.7 -19.1 7.85 -18.7Q6 -18.3 4.55 -17.7Q3.85 -18.15 3.4 -19.1Q2.95 -20.05 2.95 -21.05Q2.95 -22.4 3.55 -23.2Q4.2 -24 5.55 -24.55Q7.05 -25.1 9.05 -25.35Q11.1 -25.65 12.9 -25.65" />
</g>
<g id="PathID_58" transform="matrix(2.93098, 0, 0, 2.93098, 273.3, 119.35)" opacity="1">
</g>
<g id="PathID_59" transform="matrix(2.93098, 0, 0, 2.93098, 354.9, 119.35)" opacity="1">
<path style="fill:#FFFFFF;fill-opacity:1" d="M11.35 -0.05Q10.85 0.15 9.75 0.3Q8.65 0.45 7.45 0.45Q6.3 0.45 5.4 0.3Q4.55 0.15 3.9 -0.3Q3.3 -0.8 2.95 -1.6Q2.65 -2.4 2.65 -3.65L2.65 -19Q2.65 -20.2 3.05 -21.05Q3.5 -21.9 4.35 -22.55Q5.15 -23.2 6.35 -23.75Q7.55 -24.3 8.9 -24.7Q10.3 -25.1 11.8 -25.35Q13.3 -25.6 14.75 -25.6Q17.25 -25.6 18.65 -24.65Q20.1 -23.7 20.1 -21.55Q20.1 -20.8 19.9 -20.1Q19.7 -19.45 19.4 -18.85L17.15 -18.75L14.95 -18.45L12.95 -18Q12 -17.8 11.35 -17.5L11.35 -0.05" />
</g>
<g id="PathID_60" transform="matrix(2.93098, 0, 0, 2.93098, 354.9, 119.35)" opacity="1">
</g>
<g id="PathID_61" transform="matrix(2.93098, 0, 0, 2.93098, 416.55, 119.35)" opacity="1">
<path style="fill:#FFFFFF;fill-opacity:1" d="M11.35 -8.55Q11.35 -7.2 12.2 -6.6Q13.05 -6.05 14.55 -6.05L16.15 -6.15Q16.95 -6.3 17.6 -6.55Q18.05 -5.95 18.35 -5.25Q18.7 -4.6 18.7 -3.6Q18.7 -1.65 17.25 -0.4Q15.8 0.8 12.1 0.8Q7.6 0.8 5.15 -1.25Q2.75 -3.3 2.75 -7.9L2.75 -29.8Q3.3 -30 4.35 -30.15Q5.4 -30.35 6.6 -30.35Q8.85 -30.35 10.1 -29.55Q11.35 -28.75 11.35 -26.2L11.35 -22.9L18.05 -22.9Q18.35 -22.35 18.6 -21.5Q18.9 -20.65 18.9 -19.65Q18.9 -17.85 18.1 -17.05Q17.35 -16.25 16 -16.25L11.35 -16.25L11.35 -8.55" />
</g>
<g id="PathID_62" transform="matrix(2.93098, 0, 0, 2.93098, 416.55, 119.35)" opacity="1">
</g>
<g id="PathID_63" transform="matrix(2.93098, 0, 0, 2.93098, 476.6, 119.35)" opacity="1">
<path style="fill:#FFFFFF;fill-opacity:1" d="M27.2 -0.05Q26.7 0.15 25.6 0.3Q24.5 0.45 23.3 0.45Q22.2 0.45 21.3 0.3Q20.4 0.15 19.8 -0.3Q19.2 -0.8 18.85 -1.6Q18.5 -2.4 18.5 -3.65L18.5 -15.05Q18.5 -17.15 17.45 -17.95Q16.4 -18.8 14.85 -18.8Q13.85 -18.8 12.9 -18.55Q12 -18.3 11.45 -17.95L11.45 -0.05Q10.95 0.15 9.85 0.3Q8.75 0.45 7.55 0.45Q6.45 0.45 5.55 0.3Q4.65 0.15 4 -0.3Q3.4 -0.8 3.05 -1.6Q2.75 -2.4 2.75 -3.65L2.75 -33.35L4.4 -33.6Q5.5 -33.8 6.65 -33.8Q7.75 -33.8 8.65 -33.65Q9.55 -33.5 10.15 -33.05Q10.8 -32.6 11.1 -31.8Q11.45 -31 11.45 -29.7L11.45 -24.7Q12.1 -24.95 13.45 -25.3Q14.8 -25.65 16.45 -25.65Q21.55 -25.65 24.35 -23.1Q27.2 -20.55 27.2 -15.55L27.2 -0.05" />
</g>
<g id="PathID_64" transform="matrix(2.93098, 0, 0, 2.93098, 476.6, 119.35)" opacity="1">
</g>
<g id="PathID_65" transform="matrix(2.93098, 0, 0, 2.93098, 563.15, 120.35)" opacity="1">
<path style="fill:#FFFFFF;fill-opacity:1" d="M16.65 -18.75Q15.4 -18.75 14.25 -18.35Q13.1 -17.95 12.25 -17.15Q11.4 -16.35 10.85 -15.15Q10.35 -14 10.35 -12.4Q10.35 -9.25 12.15 -7.65Q14 -6.05 16.6 -6.05Q18.15 -6.05 19.25 -6.4Q20.4 -6.8 21.25 -7.2Q22.3 -6.5 22.8 -5.65Q23.3 -4.8 23.3 -3.6Q23.3 -1.5 21.3 -0.35Q19.35 0.8 15.8 0.8Q12.55 0.8 9.95 -0.15Q7.35 -1.1 5.45 -2.8Q3.6 -4.55 2.55 -6.95Q1.55 -9.35 1.55 -12.25Q1.55 -15.65 2.65 -18.15Q3.75 -20.7 5.65 -22.35Q7.55 -24 10 -24.8Q12.5 -25.65 15.3 -25.65Q18.95 -25.65 20.95 -24.3Q22.95 -22.95 22.95 -20.85Q22.95 -19.9 22.5 -19.05Q22.05 -18.2 21.45 -17.6Q20.55 -18 19.3 -18.35Q18.1 -18.75 16.65 -18.75" />
</g>
<g id="PathID_66" transform="matrix(2.93098, 0, 0, 2.93098, 563.15, 120.35)" opacity="1">
</g>
<g id="PathID_67" transform="matrix(2.93098, 0, 0, 2.93098, 636.55, 120.35)" opacity="1">
<path style="fill:#FFFFFF;fill-opacity:1" d="M28.4 -12.4Q28.4 -9.25 27.4 -6.75Q26.45 -4.3 24.65 -2.6Q22.9 -0.9 20.45 0Q18 0.85 15 0.85Q11.95 0.85 9.5 -0.05Q7.05 -1 5.25 -2.7Q3.5 -4.45 2.5 -6.9Q1.55 -9.35 1.55 -12.4Q1.55 -15.45 2.5 -17.9Q3.5 -20.35 5.25 -22.05Q7.05 -23.8 9.5 -24.7Q11.95 -25.65 15 -25.65Q18 -25.65 20.45 -24.7Q22.9 -23.75 24.65 -22Q26.45 -20.3 27.4 -17.85Q28.4 -15.4 28.4 -12.4M10.45 -12.4Q10.45 -9.3 11.65 -7.6Q12.9 -5.95 15.05 -5.95Q17.2 -5.95 18.35 -7.65Q19.5 -9.35 19.5 -12.4Q19.5 -15.5 18.3 -17.15Q17.15 -18.8 15 -18.8Q12.85 -18.8 11.65 -17.15Q10.45 -15.5 10.45 -12.4" />
</g>
<g id="PathID_68" transform="matrix(2.93098, 0, 0, 2.93098, 636.55, 120.35)" opacity="1">
</g>
<g id="PathID_69" transform="matrix(2.93098, 0, 0, 2.93098, 724.45, 120.35)" opacity="1">
<path style="fill:#FFFFFF;fill-opacity:1" d="M11.35 -0.05Q10.85 0.15 9.75 0.3Q8.65 0.45 7.45 0.45Q6.3 0.45 5.4 0.3Q4.55 0.15 3.9 -0.3Q3.3 -0.8 2.95 -1.6Q2.65 -2.4 2.65 -3.65L2.65 -19Q2.65 -20.2 3.05 -21.05Q3.5 -21.9 4.35 -22.55Q5.15 -23.2 6.35 -23.75Q7.55 -24.3 8.9 -24.7Q10.3 -25.1 11.8 -25.35Q13.3 -25.6 14.75 -25.6Q17.25 -25.6 18.65 -24.65Q20.1 -23.7 20.1 -21.55Q20.1 -20.8 19.9 -20.1Q19.7 -19.45 19.4 -18.85L17.15 -18.75L14.95 -18.45L12.95 -18Q12 -17.8 11.35 -17.5L11.35 -0.05" />
</g>
<g id="PathID_70" transform="matrix(2.93098, 0, 0, 2.93098, 724.45, 120.35)" opacity="1">
</g>
<g id="PathID_71" transform="matrix(2.93098, 0, 0, 2.93098, 786.15, 120.35)" opacity="1">
<path style="fill:#FFFFFF;fill-opacity:1" d="M14.05 -25.65Q17.15 -25.65 19.75 -24.85Q22.4 -24.05 24.3 -22.4Q26.2 -20.75 27.25 -18.25Q28.35 -15.8 28.35 -12.35Q28.35 -9.1 27.4 -6.6Q26.5 -4.15 24.8 -2.5Q23.1 -0.85 20.7 0Q18.35 0.8 15.45 0.8Q13.25 0.8 11.35 0.15L11.35 8.65Q10.85 8.8 9.7 8.95Q8.6 9.15 7.4 9.15Q6.25 9.15 5.35 9Q4.5 8.85 3.85 8.35Q3.25 7.9 2.95 7.1Q2.65 6.3 2.65 5.05L2.65 -19.55Q2.65 -20.9 3.2 -21.75Q3.8 -22.65 4.85 -23.35Q6.45 -24.4 8.8 -25Q11.15 -25.65 14.05 -25.65M14.15 -6.05Q19.45 -6.05 19.45 -12.35Q19.45 -15.65 18.1 -17.2Q16.8 -18.8 14.35 -18.8Q13.4 -18.8 12.6 -18.55Q11.85 -18.35 11.3 -18.05L11.3 -6.8L12.6 -6.25Q13.35 -6.05 14.15 -6.05" />
</g>
<g id="PathID_72" transform="matrix(2.93098, 0, 0, 2.93098, 786.15, 120.35)" opacity="1">
</g>
</svg>
